# xmcd
#
# Track frame offsets:
#	150
#	12466
#	26172
#	42247
#	59169
#	74098
#	88275
#	101264
#	119199
#	133832
#
# Disc length: 2004 seconds
#
# Revision: 1
# Processed by: cddbd v1.5.2PL0 Copyright (c) Steve Scherf et al.
# Submitted via: audiograbber 1.83.01
#
DISCID=9f07d20a
DTITLE=We Are The Ocean - Go now and live
DYEAR=2011
DGENRE=Rock
TTITLE0=Trouble is temporary, time is tonic
TTITLE1=What it feels like
TTITLE2=The waiting room
TTITLE3=Runaway
TTITLE4=Trials and tribulations
TTITLE5=Overtime is a crime
TTITLE6=Godspeed
TTITLE7=Now and then
TTITLE8=Follow what you need
TTITLE9=Before I die
EXTD=
EXTT0=
EXTT1=
EXTT2=
EXTT3=
EXTT4=
EXTT5=
EXTT6=
EXTT7=
EXTT8=
EXTT9=
PLAYORDER=
